Zig and Zags Super Bloopers S01E01 HQ PDTV x264 AC3

REPACK as i got the episode number wrong on the first one.

In episode one we'll be embarrassing Brian Ormond on the Superbloopers sofa with some clips of his dodgy musical past.

File Info:
Complete name                            : Zig and Zags Super Bloopers S01E01 [RTE Ireland] HQ PDTV x264 AC3 DeViL303.mkv
Format                                   : Matroska
Format version                           : Version 1
File size                                : 263 MiB
Duration                                 : 24mn 31s
Overall bit rate mode                    : Variable
Overall bit rate                         : 1 497 Kbps
Encoded date                             : UTC 2013-03-03 21:20:19
Writing application                      : mkvmerge v2.5.3 ('Boogie') built on Mar  7 2009 15:00:41
Writing library                          : libebml v0.7.7 + libmatroska v0.8.1

Video
ID                                       : 1
Format                                   : AVC
Format/Info                              : Advanced Video Codec
Format profile                           : High@L3.0
Format settings, CABAC                   : Yes
Format settings, ReFrames                : 3 frames
Codec ID                                 : V_MPEG4/ISO/AVC
Duration                                 : 24mn 31s
Bit rate mode                            : Variable
Bit rate                                 : 1 303 Kbps
Maximum bit rate                         : 12.0 Mbps
Width                                    : 720 pixels
Height                                   : 576 pixels
Display aspect ratio                     : 16:9
Original display aspect ratio            : 5:4
Frame rate mode                          : Constant
Frame rate                               : 25.000 fps
Standard                                 : PAL
Color space                              : YUV
Chroma subsampling                       : 4:2:0
Bit depth                                : 8 bits
Scan type                                : Progressive
Bits/(Pixel*Frame)                       : 0.126
Stream size                              : 224 MiB (85%)
Writing library                          : x264 core 93 r1542M 5b86182
Encoding settings                        : cabac=1 / ref=3 / deblock=1:-1:-1 / 
Default                                  : Yes
Forced                                   : No

Audio
ID                                       : 2
Format                                   : AC-3
Format/Info                              : Audio Coding 3
Mode extension                           : CM (complete main)
Format settings, Endianness              : Big
Codec ID                                 : A_AC3
Duration                                 : 24mn 31s
Bit rate mode                            : Constant
Bit rate                                 : 192 Kbps
Channel(s)                               : 2 channels
Channel positions                        : Front: L R
Sampling rate                            : 48.0 KHz
Bit depth                                : 16 bits
Compression mode                         : Lossy
Stream size                              : 33.7 MiB (13%)
Default                                  : Yes
Forced                                   : No

Menu
00:00:00.000                             : en:Chapter 1n[00:00:00]
00:02:13.796                             : en:Chapter 2n[00:02:13]
00:04:27.592                             : en:Chapter 3n[00:04:27]
00:06:41.389                             : en:Chapter 4n[00:06:41]
00:08:55.185                             : en:Chapter 5n[00:08:55]
00:11:08.981                             : en:Chapter 6n[00:11:08]
00:13:22.778                             : en:Chapter 7n[00:13:22]
00:15:36.574                             : en:Chapter 8n[00:15:36]
00:17:50.370                             : en:Chapter 9n[00:17:50]
00:20:04.167                             : en:Chapter 10n[00:20:04]
00:22:17.963                             : en:Chapter 11n[00:22:17]
00:24:29.760                             : en:Chapter 12n[00:24:29]

